<?xml version="1.0" encoding="utf-8"?>
<!-- Generator: Adobe Illustrator 16.0.0, SVG Export Plug-In . SVG Version: 6.00 Build 0)  -->
<!DOCTYPE svg PUBLIC "-//W3C//DTD SVG 1.1//EN" "http://www.w3.org/Graphics/SVG/1.1/DTD/svg11.dtd">
<svg version="1.1" id="Layer_1" xmlns="http://www.w3.org/2000/svg" xmlns:xlink="http://www.w3.org/1999/xlink" x="0px" y="0px"
	 width="16px" height="16px" viewBox="0 0 16 16" enable-background="new 0 0 16 16" xml:space="preserve">
<path fill="#B5B5B6" d="M3.133,0C1.41,0,0,1.41,0,3.134v9.723c0,1.725,1.41,3.133,3.133,3.133h9.724
	c1.723,0,3.132-1.408,3.132-3.133V3.134C15.99,1.41,14.58,0,12.857,0H3.133L3.133,0z M3.922,2.639c0.826,0,1.335,0.544,1.351,1.255
	c0,0.699-0.524,1.255-1.367,1.255H3.89c-0.811,0-1.334-0.556-1.334-1.255C2.556,3.183,3.095,2.639,3.922,2.639L3.922,2.639z
	 M11.042,5.971c1.588,0,2.78,1.04,2.78,3.271v4.165h-2.415V9.521c0-0.977-0.349-1.643-1.223-1.643c-0.667,0-1.065,0.45-1.24,0.883
	c-0.062,0.155-0.079,0.372-0.079,0.59v4.056H6.449c0,0,0.032-6.583,0-7.265h2.416V7.17C9.187,6.676,9.76,5.971,11.042,5.971
	L11.042,5.971z M2.698,6.143h2.415v7.264H2.698V6.143L2.698,6.143z"/>
</svg>
